<svg width="799" height="476" viewBox="0 0 799 476" fill="none" xmlns="http://www.w3.org/2000/svg">
<path d="M340.498 225.481C351.002 225.481 359.518 216.965 359.518 206.461C359.518 195.957 351.002 187.441 340.498 187.441C329.994 187.441 321.479 195.957 321.479 206.461C321.479 216.965 329.994 225.481 340.498 225.481Z" stroke="white" stroke-width="6" stroke-miterlimit="10" stroke-linecap="round" stroke-linejoin="round"/>
<path d="M462.332 225.481C472.836 225.481 481.352 216.965 481.352 206.461C481.352 195.957 472.836 187.441 462.332 187.441C451.828 187.441 443.312 195.957 443.312 206.461C443.312 216.965 451.828 225.481 462.332 225.481Z" stroke="white" stroke-width="6" stroke-miterlimit="10" stroke-linecap="round" stroke-linejoin="round"/>
<path d="M346.836 225.758C353.727 250.566 376.606 268.759 403.619 268.759C430.632 268.759 453.235 250.566 460.402 225.758" stroke="white" stroke-width="6" stroke-miterlimit="10" stroke-linecap="round" stroke-linejoin="round"/>
<path d="M640.27 164.915C649.148 154.083 647.564 138.104 636.732 129.226C625.901 120.348 609.922 121.932 601.044 132.764C592.166 143.596 593.75 159.574 604.582 168.452C615.414 177.331 631.392 175.747 640.27 164.915Z" stroke="white" stroke-width="6" stroke-miterlimit="10" stroke-linecap="round" stroke-linejoin="round"/>
<path d="M625.884 282.5C639.572 279.535 648.264 266.035 645.299 252.347C642.334 238.66 628.835 229.967 615.147 232.932C601.459 235.897 592.767 249.397 595.732 263.085C598.697 276.772 612.197 285.465 625.884 282.5Z" stroke="white" stroke-width="6" stroke-miterlimit="10" stroke-linecap="round" stroke-linejoin="round"/>
<path d="M589.545 213.149C594.934 200.222 588.823 185.373 575.896 179.984C562.969 174.594 548.12 180.705 542.731 193.632C537.342 206.559 543.452 221.408 556.379 226.797C569.307 232.187 584.155 226.076 589.545 213.149Z" stroke="white" stroke-width="6" stroke-miterlimit="10" stroke-linecap="round" stroke-linejoin="round"/>
<path d="M675.139 228.791C689.144 228.791 700.498 217.437 700.498 203.432C700.498 189.426 689.144 178.072 675.139 178.072C661.133 178.072 649.779 189.426 649.779 203.432C649.779 217.437 661.133 228.791 675.139 228.791Z" stroke="white" stroke-width="6" stroke-miterlimit="10" stroke-linecap="round" stroke-linejoin="round"/>
<path d="M412.993 0H393.422V33.0776H412.993V0Z" fill="white"/>
<path d="M155.541 170.628L179.247 129.281L203.228 170.628H155.541Z" stroke="white" stroke-width="6" stroke-miterlimit="10" stroke-linecap="round" stroke-linejoin="round"/>
<path d="M203.228 234.576L179.247 275.923L155.541 234.576H203.228Z" stroke="white" stroke-width="6" stroke-miterlimit="10" stroke-linecap="round" stroke-linejoin="round"/>
<path d="M147.546 224.376L106.199 200.671L147.546 176.689V224.376Z" stroke="white" stroke-width="6" stroke-miterlimit="10" stroke-linecap="round" stroke-linejoin="round"/>
<path d="M214.531 176.689L255.878 200.671L214.531 224.376V176.689Z" stroke="white" stroke-width="6" stroke-miterlimit="10" stroke-linecap="round" stroke-linejoin="round"/>
<path d="M179.244 219.416C189.596 219.416 197.988 211.024 197.988 200.672C197.988 190.32 189.596 181.928 179.244 181.928C168.892 181.928 160.5 190.32 160.5 200.672C160.5 211.024 168.892 219.416 179.244 219.416Z" stroke="white" stroke-width="6" stroke-miterlimit="10" stroke-linecap="round" stroke-linejoin="round"/>
<path d="M792.007 179.45C792.007 179.175 792.007 179.175 792.007 179.45C780.43 97.8591 712.621 33.6335 628.273 28.9475H627.997L178.969 28.6719C87.1792 28.6719 11.6521 99.7886 4.20966 189.649C-0.200686 218.041 -1.02762 258.01 1.17755 313.415C4.76095 404.378 76.1534 475.77 164.085 475.77C207.637 475.77 248.708 459.231 279.029 429.462C306.869 402.448 323.132 367.166 326.44 328.575H471.982C475.014 366.89 491.552 402.448 519.393 429.462C549.989 459.231 590.785 475.77 634.337 475.77C677.338 475.77 717.858 458.68 748.179 427.808C777.673 397.762 795.315 356.967 797.244 313.415C800.001 262.696 796.693 206.464 792.007 179.45ZM771.333 312.312C767.474 390.596 708.762 449.584 634.613 449.584C557.983 449.584 497.892 390.871 497.892 315.62C497.892 308.453 492.104 302.389 484.661 302.389H313.76C306.594 302.389 300.529 308.177 300.529 315.62C300.529 390.596 240.439 449.584 163.809 449.584C90.2113 449.584 30.1204 389.217 27.0883 312.312C24.6075 249.189 26.2614 205.637 32.3256 180.277C32.3256 180.277 35.909 164.841 38.3898 156.572C58.2363 98.1347 113.366 55.9609 178.418 55.9609L626.343 56.2365C696.633 60.3712 753.141 113.295 763.615 180.829C764.994 181.104 773.814 263.247 771.333 312.312Z" fill="url(#paint0_linear_1_137)"/>
<g opacity="0.2">
<path d="M0.351023 269.311C0.62667 242.849 2.0049 221.624 4.48572 204.534C11.6525 114.398 87.1796 43.5568 179.245 43.5568L627.998 43.8324H628.273C712.621 48.5184 780.43 112.468 792.007 194.06C792.007 194.06 792.007 194.06 792.007 194.335C795.315 214.182 798.072 249.189 798.347 286.401C798.623 243.952 795.591 201.778 792.007 179.45C792.007 179.45 792.007 179.45 792.007 179.175C780.43 97.5835 712.621 33.6335 628.273 28.9475H627.998L178.97 28.6719C87.1796 28.6719 11.6525 99.7886 4.21007 189.649C1.45361 209.772 0.0753769 235.958 0.351023 269.311Z" fill="url(#paint1_radial_1_137)"/>
<path d="M27.6377 327.197C30.6699 404.103 90.7607 464.469 164.358 464.469C240.988 464.469 301.079 405.757 301.079 330.505C301.079 323.338 306.867 317.274 314.31 317.274H485.211C492.377 317.274 498.442 323.063 498.442 330.505C498.442 405.481 558.533 464.469 635.162 464.469C709.311 464.469 768.024 405.481 771.883 327.197C772.158 319.204 772.434 310.383 772.158 301.287C772.158 305.146 771.883 309.005 771.883 312.588C768.024 390.872 709.311 449.86 635.162 449.86C558.533 449.86 498.442 391.147 498.442 315.896C498.442 308.729 492.653 302.665 485.211 302.665H314.31C307.143 302.665 301.079 308.453 301.079 315.896C301.079 390.872 240.988 449.86 164.358 449.86C90.7607 449.86 30.6699 389.494 27.6377 312.588C27.0864 297.152 26.8108 283.094 26.5352 270.139C26.5352 286.677 26.8108 305.697 27.6377 327.197Z" fill="url(#paint2_radial_1_137)"/>
</g>
<path d="M180.619 320.582C115.291 320.582 62.0914 267.382 62.0914 202.054C62.0914 136.725 115.291 83.5257 180.619 83.5257C245.948 83.5257 299.147 136.725 299.147 202.054C299.147 267.382 245.948 320.582 180.619 320.582ZM180.619 111.366C130.452 111.366 89.6561 152.162 89.6561 202.329C89.6561 252.497 130.452 293.293 180.619 293.293C230.787 293.293 271.583 252.497 271.583 202.329C271.583 151.886 230.787 111.366 180.619 111.366Z" fill="url(#paint3_linear_1_137)"/>
<g opacity="0.2">
<path d="M180.619 96.2051C243.743 96.2051 295.564 146.097 298.872 208.393C298.872 206.464 299.147 204.258 299.147 202.329C299.147 137.001 245.948 83.801 180.619 83.801C115.291 83.801 62.0916 137.001 62.0916 202.329C62.0916 204.534 62.0916 206.464 62.3672 208.393C65.675 145.821 117.496 96.2051 180.619 96.2051Z" fill="url(#paint4_radial_1_137)"/>
<path d="M180.619 305.418C230.787 305.418 271.583 264.623 271.583 214.455C271.583 212.25 271.583 210.32 271.307 208.391C267.999 255.526 228.582 293.014 180.619 293.014C132.657 293.014 93.2394 255.526 89.9317 208.391C89.656 210.32 89.656 212.525 89.656 214.455C89.656 264.623 130.452 305.418 180.619 305.418Z" fill="url(#paint5_radial_1_137)"/>
</g>
<path d="M620.549 320.581C555.221 320.581 502.021 267.382 502.021 202.053C502.021 136.725 555.221 83.5255 620.549 83.5255C685.877 83.5255 739.077 136.725 739.077 202.053C739.077 267.382 685.877 320.581 620.549 320.581ZM620.549 111.366C570.382 111.366 529.586 152.161 529.586 202.329C529.586 252.497 570.382 293.292 620.549 293.292C670.717 293.292 711.513 252.497 711.513 202.329C711.513 151.886 670.717 111.366 620.549 111.366Z" fill="url(#paint6_linear_1_137)"/>
<g opacity="0.2">
<path d="M620.549 96.205C683.672 96.205 735.494 146.097 738.802 208.393C738.802 206.464 739.077 204.258 739.077 202.329C739.077 137.001 685.877 83.8009 620.549 83.8009C555.221 83.8009 502.021 137.001 502.021 202.329C502.021 204.534 502.021 206.464 502.297 208.393C505.605 145.821 557.426 96.205 620.549 96.205Z" fill="url(#paint7_radial_1_137)"/>
<path d="M620.549 305.418C670.717 305.418 711.512 264.623 711.512 214.455C711.512 212.25 711.512 210.32 711.237 208.391C707.929 255.526 668.512 293.014 620.549 293.014C572.587 293.014 533.169 255.526 529.861 208.391C529.586 210.32 529.586 212.525 529.586 214.455C529.861 264.623 570.381 305.418 620.549 305.418Z" fill="url(#paint8_radial_1_137)"/>
</g>
<defs>
<linearGradient id="paint0_linear_1_137" x1="0.350607" y1="252.248" x2="798.468" y2="252.248" gradientUnits="userSpaceOnUse">
<stop stop-color="#00D4D5"/>
<stop offset="1" stop-color="#0091E9"/>
</linearGradient>
<radialGradient id="paint1_radial_1_137" cx="0" cy="0" r="1" gradientUnits="userSpaceOnUse" gradientTransform="translate(399.413 157.439) scale(296.5 296.5)">
<stop stop-color="#032340"/>
<stop offset="1" stop-color="#030C1D"/>
</radialGradient>
<radialGradient id="paint2_radial_1_137" cx="0" cy="0" r="1" gradientUnits="userSpaceOnUse" gradientTransform="translate(399.235 367.057) scale(272.277 272.277)">
<stop stop-color="#032340"/>
<stop offset="1" stop-color="#030C1D"/>
</radialGradient>
<linearGradient id="paint3_linear_1_137" x1="62.2019" y1="202.13" x2="299.091" y2="202.13" gradientUnits="userSpaceOnUse">
<stop stop-color="#00D4D5"/>
<stop offset="1" stop-color="#0091E9"/>
</linearGradient>
<radialGradient id="paint4_radial_1_137" cx="0" cy="0" r="1" gradientUnits="userSpaceOnUse" gradientTransform="translate(180.647 146.008) scale(94.6396 94.6396)">
<stop stop-color="#032340"/>
<stop offset="1" stop-color="#030C1D"/>
</radialGradient>
<radialGradient id="paint5_radial_1_137" cx="0" cy="0" r="1" gradientUnits="userSpaceOnUse" gradientTransform="translate(180.646 256.87) scale(72.8542 72.8542)">
<stop stop-color="#032340"/>
<stop offset="1" stop-color="#030C1D"/>
</radialGradient>
<linearGradient id="paint6_linear_1_137" x1="502.161" y1="202.13" x2="739.047" y2="202.13" gradientUnits="userSpaceOnUse">
<stop stop-color="#00D4D5"/>
<stop offset="1" stop-color="#0091E9"/>
</linearGradient>
<radialGradient id="paint7_radial_1_137" cx="0" cy="0" r="1" gradientUnits="userSpaceOnUse" gradientTransform="translate(620.604 146.008) scale(94.6388 94.6388)">
<stop stop-color="#032340"/>
<stop offset="1" stop-color="#030C1D"/>
</radialGradient>
<radialGradient id="paint8_radial_1_137" cx="0" cy="0" r="1" gradientUnits="userSpaceOnUse" gradientTransform="translate(620.603 256.87) scale(72.8531 72.853)">
<stop stop-color="#032340"/>
<stop offset="1" stop-color="#030C1D"/>
</radialGradient>
</defs>
</svg>
