<svg width="583" height="721" viewBox="0 0 583 721" fill="none" xmlns="http://www.w3.org/2000/svg">
<path d="M504.143 651.777C523.721 651.777 537.317 645.806 544.931 633.861C553.089 621.917 557.167 604.815 557.167 582.555C557.167 581.469 557.167 580.111 557.167 578.483L580.009 573.596C580.009 576.854 580.009 580.111 580.009 583.369C580.009 619.745 572.94 650.691 558.8 676.209C544.66 701.726 523.177 714.485 494.354 714.485C470.425 714.485 447.583 709.87 425.83 700.64C404.076 691.953 385.313 681.366 369.542 668.879C354.315 656.392 339.358 643.905 324.675 631.418C309.991 618.93 294.763 608.072 278.992 598.842C263.764 590.156 248.264 585.812 232.494 585.812C220.529 585.812 209.652 591.513 199.863 602.914C190.617 614.858 184.091 625.716 180.285 635.489C177.022 645.805 175.118 653.135 174.574 657.478L159.074 654.22C159.074 644.448 162.337 631.146 168.863 614.316C175.934 597.485 184.363 584.183 194.152 574.411C200.135 568.982 209.924 564.095 223.52 559.752C237.116 555.952 250.168 554.051 262.677 554.051C262.677 554.051 262.949 554.051 263.492 554.051C285.79 554.051 311.079 562.196 339.358 578.483C367.638 595.313 395.918 611.601 424.198 627.346C453.022 643.634 479.67 651.777 504.143 651.777ZM284.703 548.351C204.214 548.351 137.32 524.733 84.0241 477.5C30.7274 430.265 4.0791 367.558 4.0791 289.377C4.0791 244.857 10.0614 205.767 22.0259 172.106C34.5343 137.902 50.3058 110.756 69.3403 90.6677C88.9191 70.0366 112.032 53.4775 138.68 40.9903C165.329 27.9602 191.162 19.2735 216.178 14.9301C241.195 10.5867 267.3 8.41504 294.492 8.41504C314.07 8.41504 334.192 10.8582 354.858 15.7445C375.524 20.0879 397.822 28.7746 421.751 41.8047C446.223 54.2919 467.705 70.5796 486.196 90.6677C504.687 110.213 520.186 136.816 532.695 170.477C545.203 204.138 551.457 242.143 551.457 284.491C551.457 356.699 523.721 418.864 468.249 470.985C412.777 522.561 351.595 548.351 284.703 548.351ZM287.966 22.2595C260.774 22.2595 236.844 26.06 216.178 33.6609C195.512 40.7189 175.934 53.2061 157.443 71.1225C138.953 89.0389 124.813 115.914 115.024 151.747C105.777 187.58 101.155 231.555 101.155 283.676C101.155 303.765 102.243 323.581 104.418 343.126C107.137 362.671 112.303 384.388 119.917 408.277C128.076 431.622 138.136 452.254 150.101 470.17C162.609 487.543 180.012 502.202 202.31 514.147C224.608 526.091 250.44 532.063 279.807 532.063C298.843 532.063 315.973 530.706 331.201 527.991C346.972 525.277 360.568 521.476 371.989 516.59C383.954 511.703 394.287 505.188 402.988 497.045C412.233 488.9 419.576 481.299 425.014 474.242C430.996 466.641 436.163 456.869 440.513 444.924C444.864 432.436 448.127 421.578 450.302 412.349C452.478 402.577 454.109 390.36 455.197 375.702C456.285 360.5 456.829 348.013 456.829 338.24C457.372 327.924 457.645 314.623 457.645 298.336C457.645 266.302 456.012 237.257 452.749 211.196C450.031 184.593 444.593 159.348 436.434 135.459C428.82 111.027 418.76 90.9396 406.251 75.1944C393.743 58.9068 377.428 46.1481 357.305 36.9184C337.183 27.1458 314.07 22.2595 287.966 22.2595Z" fill="url(#paint0_linear_466_451)"/>
<defs>
<linearGradient id="paint0_linear_466_451" x1="173.296" y1="8.41507" x2="600.01" y2="151.947" gradientUnits="userSpaceOnUse">
<stop stop-color="#2DF1C3"/>
<stop offset="1" stop-color="#19BE96"/>
</linearGradient>
</defs>
</svg>
