<svg width="124" height="115" viewBox="0 0 124 115" fill="none" xmlns="http://www.w3.org/2000/svg">
<g clip-path="url(#clip0_413_456)">
<path d="M55.844 0C86.6857 0 111.688 25.0532 111.688 55.9579C111.688 65.3557 109.376 74.2124 105.291 81.9879L98.5101 74.2089L98.4617 74.153L98.4116 74.0992L88.0699 63.009C88.5628 60.7367 88.8227 58.3777 88.8227 55.9579C88.8227 37.707 74.0575 22.9119 55.844 22.9119C37.6303 22.9119 22.8652 37.707 22.8652 55.9579C22.8652 74.2085 37.6303 89.0038 55.844 89.0038C59.2254 89.0038 62.4872 88.4932 65.5586 87.5458C72.7018 96.4498 78.2374 101.222 83.1134 104.802C75.0486 109.332 65.7473 111.916 55.844 111.916C25.0022 111.916 0 86.8624 0 55.9579C0 25.0532 25.0022 0 55.844 0Z" fill="#FFD10B"/>
<path d="M78.2693 66.3113C60.8565 47.1006 40.8201 50.5224 32.9785 54.6351C38.431 57.4546 55.1842 76.2251 62.8792 85.2577C71.3218 96.1849 77.3899 101.122 82.6665 104.865C102.234 118.744 116.671 114.779 123.78 111.254C119.207 109.491 111.248 103.543 105.971 97.1542L90.5814 80.4109L78.2693 66.3113Z" fill="url(#paint0_linear_413_456)"/>
</g>
<defs>
<linearGradient id="paint0_linear_413_456" x1="78.3792" y1="51.4353" x2="78.3792" y2="114.618" gradientUnits="userSpaceOnUse">
<stop stop-color="#F13D36"/>
<stop offset="1" stop-color="#F3A329"/>
</linearGradient>
<clipPath id="clip0_413_456">
<rect width="124" height="115" fill="white"/>
</clipPath>
</defs>
</svg>
