<svg width="710" height="772" viewBox="0 0 710 772" fill="none" xmlns="http://www.w3.org/2000/svg">
<path d="M391.197 487.531L362.044 494.613L330.528 443.854L354.559 428.901L391.197 487.531ZM489.291 698.836L515.686 687.425L558.235 756.283L534.202 771.626L489.291 698.836ZM441.623 461.167L417.985 476.119L379.378 414.342L403.409 399.39L441.623 461.167ZM540.899 674.439L564.931 659.483L605.901 725.982L581.869 741.331L540.899 674.439ZM480.624 416.309L463.29 442.28L427.834 385.224L451.471 369.091L480.624 416.309ZM588.173 643.349L609.839 624.073L653.966 695.29L629.934 710.639L588.173 643.349ZM244.252 243.962C213.786 274.392 198.553 311.118 198.553 354.139C198.553 397.16 213.786 433.885 244.252 464.315C274.718 494.745 311.486 509.96 354.559 509.96C397.631 509.96 434.4 494.745 464.866 464.315C495.332 433.885 510.564 397.16 510.564 354.139C510.564 311.118 495.332 274.392 464.866 243.962C434.4 213.533 397.631 198.318 354.559 198.318C311.486 198.318 274.718 213.533 244.252 243.962ZM184.764 425.753C175.047 402.931 170.188 379.059 170.188 354.139C170.188 329.218 175.047 305.478 184.764 282.917C194.482 260.095 207.614 240.421 224.16 223.894C240.706 207.368 260.272 194.251 282.859 184.546C305.708 174.839 329.609 169.986 354.559 169.986C379.509 169.986 403.278 174.839 425.865 184.546C448.714 194.251 468.411 207.368 484.958 223.894C501.504 240.421 514.636 260.095 524.353 282.917C534.071 305.478 538.93 329.218 538.93 354.139C538.93 379.059 534.071 402.931 524.353 425.753C514.636 448.313 501.504 467.857 484.958 484.383C468.411 500.909 448.714 514.026 425.865 523.732C403.278 533.438 379.509 538.292 354.559 538.292C329.609 538.292 305.708 533.438 282.859 523.732C260.272 514.026 240.706 500.909 224.16 484.383C207.614 467.857 194.482 448.313 184.764 425.753ZM170.188 247.503C151.279 280.032 141.824 315.577 141.824 354.139C141.824 392.7 151.279 428.245 170.188 460.774C189.36 493.302 215.23 519.141 247.797 538.292C280.364 557.176 315.951 566.62 354.559 566.62C393.167 566.62 428.754 557.176 461.321 538.292C493.888 519.141 519.626 493.302 538.537 460.774C557.707 428.245 567.292 392.7 567.292 354.139C567.292 315.577 557.707 280.032 538.537 247.503C519.626 214.975 493.888 189.267 461.321 170.38C428.754 151.23 393.167 141.656 354.559 141.656C315.951 141.656 280.364 151.23 247.797 170.38C215.23 189.267 189.36 214.975 170.188 247.503ZM145.763 474.939C124.227 437.952 113.459 397.684 113.459 354.139C113.459 310.593 124.227 270.326 145.763 233.338C167.299 196.35 196.583 167.101 233.615 145.59C270.646 124.08 310.961 113.324 354.559 113.324C398.156 113.324 438.471 124.08 475.503 145.59C512.534 167.101 541.818 196.35 563.355 233.338C584.892 270.326 595.66 310.593 595.66 354.139C595.66 397.684 584.892 437.952 563.355 474.939C541.818 511.927 512.534 541.177 475.503 562.688C438.471 584.199 398.156 594.955 354.559 594.955C310.961 594.955 270.646 584.199 233.615 562.688C196.583 541.177 167.299 511.927 145.763 474.939ZM106.368 249.471C92.1851 282.786 85.0943 317.676 85.0943 354.139C85.0943 390.602 92.1851 425.491 106.368 458.806C120.55 492.122 139.591 520.846 163.491 544.98C187.654 568.85 216.412 587.868 249.767 602.035C283.122 616.202 318.052 623.283 354.559 623.283C391.065 623.283 425.996 616.202 459.351 602.035C492.705 587.868 521.333 568.85 545.234 544.98C569.396 520.846 588.566 492.122 602.749 458.806C616.933 425.491 624.022 390.602 624.022 354.139C624.022 317.676 616.933 282.786 602.749 249.471C588.566 216.156 569.396 187.562 545.234 163.69C521.333 139.557 492.705 120.407 459.351 106.242C425.996 92.0762 391.065 84.9932 354.559 84.9932C318.052 84.9932 283.122 92.0762 249.767 106.242C216.412 120.407 187.654 139.557 163.491 163.69C139.591 187.562 120.55 216.156 106.368 249.471ZM96.5188 503.271C69.9928 457.626 56.7292 407.915 56.7292 354.139C56.7292 300.362 69.9928 250.652 96.5188 205.007C123.308 159.362 159.551 123.293 205.25 96.798C250.949 70.0407 300.719 56.6623 354.559 56.6623C408.399 56.6623 458.169 70.0407 503.867 96.798C549.564 123.293 585.677 159.362 612.205 205.007C638.992 250.652 652.39 300.362 652.39 354.139C652.39 407.915 638.992 457.626 612.205 503.271C585.677 548.913 549.564 585.118 503.867 611.872C458.169 638.369 408.399 651.617 354.559 651.617C300.719 651.617 250.949 638.369 205.25 611.872C159.551 585.118 123.308 548.913 96.5188 503.271ZM53.9715 227.829C36.9004 267.965 28.3647 310.068 28.3647 354.139C28.3647 398.209 36.9004 440.443 53.9715 480.842C71.3057 520.977 94.5491 555.602 123.702 584.72C152.854 613.839 187.522 637.058 227.705 654.368C268.152 671.42 310.436 679.946 354.559 679.946C398.682 679.946 440.835 671.42 481.018 654.368C521.464 637.058 556.266 613.839 585.414 584.72C614.567 555.602 637.679 520.977 654.752 480.842C672.087 440.443 680.753 398.209 680.753 354.139C680.753 310.068 672.087 267.965 654.752 227.829C637.679 187.431 614.567 152.673 585.414 123.555C556.266 94.4368 521.464 71.3521 481.018 54.3011C440.835 36.9878 398.682 28.3311 354.559 28.3311C310.436 28.3311 268.152 36.9878 227.705 54.3011C187.522 71.3521 152.854 94.4368 123.702 123.555C94.5491 152.673 71.3057 187.431 53.9715 227.829ZM27.9708 491.859C9.32358 448.051 0 402.144 0 354.139C0 306.133 9.32358 260.357 27.9708 216.811C46.8805 173.003 72.0937 135.36 103.61 103.88C135.389 72.1392 173.077 46.9561 216.675 28.3311C260.535 9.44368 306.496 0 354.559 0C402.621 0 448.451 9.44368 492.049 28.3311C535.909 46.9561 573.596 72.1392 605.116 103.88C636.894 135.36 662.104 173.003 680.753 216.811C699.664 260.357 709.12 306.133 709.12 354.139C709.12 402.144 699.664 448.051 680.753 491.859C662.104 535.407 636.894 573.051 605.116 604.791C573.596 636.268 535.909 661.32 492.049 679.946C448.451 698.836 402.621 708.275 354.559 708.275C306.496 708.275 260.535 698.836 216.675 679.946C173.077 661.32 135.389 636.268 103.61 604.791C72.0937 573.051 46.8805 535.407 27.9708 491.859Z" fill="url(#paint0_linear_374_609)"/>
<defs>
<linearGradient id="paint0_linear_374_609" x1="208.35" y1="3.07012e-05" x2="719.747" y2="193.802" gradientUnits="userSpaceOnUse">
<stop stop-color="#2DF1C3"/>
<stop offset="1" stop-color="#19BE96"/>
</linearGradient>
</defs>
</svg>
